<svg width="18" height="16" viewBox="0 0 18 16" fill="none" xmlns="http://www.w3.org/2000/svg">
<path fill-rule="evenodd" clip-rule="evenodd" d="M6.29751 3.16552C6.29751 1.51185 4.91517 0.165283 3.21498 0.165283C1.51577 0.165283 0.132446 1.51185 0.132446 3.16552C0.132446 4.81919 1.51577 6.16382 3.21498 6.16382C4.91517 6.16382 6.29751 4.81919 6.29751 3.16552ZM17.4612 12.5692C17.4612 10.9156 16.0788 9.56996 14.3796 9.56996C12.6794 9.56996 11.2961 10.9156 11.2961 12.5692C11.2961 14.2229 12.6794 15.5685 14.3796 15.5685C16.0788 15.5685 17.4612 14.2229 17.4612 12.5692ZM12.7815 12.5692C12.7815 11.7167 13.4985 11.0231 14.3797 11.0231C15.26 11.0231 15.976 11.7167 15.976 12.5692C15.976 13.4227 15.26 14.1153 14.3797 14.1153C13.4985 14.1153 12.7815 13.4227 12.7815 12.5692ZM7.14358 11.8802C7.55353 11.8802 7.88624 12.2057 7.88624 12.6068C7.88624 13.0079 7.55353 13.3334 7.14358 13.3334H0.90425C0.494302 13.3334 0.161591 13.0079 0.161591 12.6068C0.161591 12.2057 0.494302 11.8802 0.90425 11.8802H7.14358ZM3.21508 1.61838C2.33478 1.61838 1.61786 2.31201 1.61786 3.16549C1.61786 4.01799 2.33478 4.71065 3.21508 4.71065C4.09637 4.71065 4.81229 4.01799 4.81229 3.16549C4.81229 2.31201 4.09637 1.61838 3.21508 1.61838ZM16.9078 3.21728C16.9078 2.81622 16.575 2.49072 16.1651 2.49072H9.92676C9.51681 2.49072 9.1841 2.81622 9.1841 3.21728C9.1841 3.61835 9.51681 3.94385 9.92676 3.94385H16.1651C16.575 3.94385 16.9078 3.61835 16.9078 3.21728Z" fill="#F25D29"/>
</svg>
