<svg width="24" height="24" viewBox="0 0 24 24" fill="none" xmlns="http://www.w3.org/2000/svg">
<path fill-rule="evenodd" clip-rule="evenodd" d="M19.6889 0.926528C20.1281 0.492263 20.8798 0.725444 20.9895 1.32995L21.2807 2.93653L22.9055 3.22461C23.5168 3.333 23.7527 4.07631 23.3135 4.51056L21.6362 6.16907C22.8191 7.95972 23.5068 10.0994 23.5068 12.3977C23.5068 18.6962 18.3432 23.8021 11.9736 23.8021C5.60401 23.8021 0.44043 18.6962 0.44043 12.3977C0.44043 6.09932 5.60401 0.993421 11.9736 0.993421C14.1626 0.993421 16.2091 1.59641 17.9525 2.64358L19.6889 0.926528ZM19.9014 2.50867L18.3906 4.00252L18.6927 5.49587L20.2029 5.79455L21.7136 4.30069L20.7035 4.12162C20.387 4.06548 20.1392 3.82047 20.0824 3.50744L19.9014 2.50867ZM20.679 7.04141C21.6591 8.59558 22.2254 10.4312 22.2254 12.3977C22.2254 17.9964 17.6356 22.5349 11.9737 22.5349C6.31182 22.5349 1.72198 17.9964 1.72198 12.3977C1.72198 6.79912 6.31182 2.26054 11.9737 2.26054C13.8404 2.26054 15.5906 2.75389 17.0981 3.61593C17.0621 3.73387 17.0551 3.86044 17.0802 3.98493L17.4945 6.03289L15.1113 8.38937C14.2443 7.72472 13.1557 7.3291 11.9737 7.3291C9.14275 7.3291 6.84783 9.5984 6.84783 12.3977C6.84783 15.197 9.14275 17.4663 11.9737 17.4663C14.8046 17.4663 17.0995 15.197 17.0995 12.3977C17.0995 11.2239 16.696 10.1433 16.0188 9.28417L18.568 6.76336L20.2205 7.09018C20.3771 7.12114 20.5369 7.10279 20.679 7.04141ZM14.1955 9.29517L11.5296 11.9312C11.2795 12.1786 11.2795 12.5797 11.5296 12.8272C11.7799 13.0746 12.1856 13.0746 12.4359 12.8272L15.1033 10.1896C15.5533 10.812 15.8181 11.5743 15.8181 12.3979C15.8181 14.4974 14.0969 16.1993 11.9737 16.1993C9.85041 16.1993 8.12928 14.4974 8.12928 12.3979C8.12928 10.2983 9.85041 8.5964 11.9737 8.5964C12.8014 8.5964 13.5681 8.85509 14.1955 9.29517Z" fill="#9299A3"/>
</svg>
