<svg width="24" height="24" viewBox="0 0 24 24" fill="none" xmlns="http://www.w3.org/2000/svg">
<path fill-rule="evenodd" clip-rule="evenodd" d="M22.633 10.7483C22.6335 10.7488 22.634 10.7495 22.6348 10.7501C23.4621 11.5792 23.4617 12.9276 22.6335 13.7562C22.2316 14.1582 21.6976 14.3794 21.1299 14.3794H20.7817V21.3134C20.7817 22.6857 19.6654 23.8021 18.293 23.8021H14.607C14.2332 23.8021 13.9303 23.499 13.9303 23.1254V17.689C13.9303 17.0628 13.4211 16.5535 12.795 16.5535H10.6209C9.99479 16.5535 9.48535 17.0628 9.48535 17.689V23.1254C9.48535 23.499 9.18244 23.8021 8.80869 23.8021H5.12266C3.75049 23.8021 2.634 22.6857 2.634 21.3134V14.3794H2.25867C2.23664 14.3794 2.21479 14.3783 2.19294 14.3762C1.65919 14.3531 1.16015 14.1342 0.782173 13.756C-0.045149 12.9286 -0.0465587 11.5828 0.77812 10.7532L0.787636 10.7435L10.2043 1.3261C10.6061 0.924295 11.14 0.703125 11.7079 0.703125C12.2759 0.703125 12.8098 0.924295 13.2114 1.3261L22.633 10.7483Z" fill="#F25D29"/>
</svg>
