<svg width="16" height="19" viewBox="0 0 16 19" fill="none" xmlns="http://www.w3.org/2000/svg">
<path fill-rule="evenodd" clip-rule="evenodd" d="M7.70836 0.184082C11.409 0.184082 13.8949 3.0663 13.8949 5.75786C13.8949 7.14236 14.247 7.72929 14.6209 8.35202C14.9905 8.96643 15.4093 9.66409 15.4093 10.9828C15.1187 14.3521 11.6013 14.6268 7.70836 14.6268C3.81546 14.6268 0.297193 14.3521 0.00995975 11.0361C0.00747328 9.66409 0.426235 8.96643 0.795878 8.35202L0.926372 8.13236C1.24767 7.58015 1.52184 6.97948 1.52184 5.75786C1.52184 3.0663 4.00777 0.184082 7.70836 0.184082ZM6.1076 16.0904C6.53885 16.5708 7.09248 16.8347 7.66692 16.8347H7.66776C8.2447 16.8347 8.80083 16.5708 9.23291 16.0896C9.46435 15.834 9.85897 15.8132 10.1146 16.0438C10.371 16.2744 10.3918 16.6698 10.1612 16.9254C9.4885 17.6722 8.60352 18.0835 7.66776 18.0835H7.66609C6.73283 18.0827 5.84951 17.6714 5.17933 16.9246C4.94872 16.669 4.96953 16.2736 5.22595 16.0438C5.48237 15.8123 5.87699 15.8332 6.1076 16.0904ZM2.77061 5.75782C2.77061 3.71229 4.79865 1.43283 7.70834 1.43283C10.618 1.43283 12.6461 3.71229 12.6461 5.75782C12.6461 7.48864 13.1264 8.2887 13.551 8.99469C13.8915 9.56164 14.1604 10.0095 14.1629 10.9287C14.0247 12.5163 12.9558 13.378 7.70834 13.378C2.43177 13.378 1.39527 12.5529 1.25624 10.9828C1.25624 10.0095 1.52515 9.56164 1.86565 8.99469C2.29024 8.2887 2.77061 7.48864 2.77061 5.75782Z" fill="#F25D29"/>
</svg>
