<svg width="19" height="18" viewBox="0 0 19 18" fill="none" xmlns="http://www.w3.org/2000/svg">
<path d="M16.5168 17.6736C16.8927 18.0495 17.5021 18.0495 17.8779 17.6736C18.2538 17.2978 18.2538 16.6884 17.8779 16.3125L16.5168 17.6736ZM14.0281 12.4627C13.6522 12.0868 13.0428 12.0868 12.667 12.4627C12.2911 12.8385 12.2911 13.4479 12.667 13.8238L14.0281 12.4627ZM17.8779 16.3125L14.0281 12.4627L12.667 13.8238L16.5168 17.6736L17.8779 16.3125ZM14.31 8.33095C14.31 11.5203 11.7246 14.1057 8.53525 14.1057V16.0306C12.7877 16.0306 16.2349 12.5834 16.2349 8.33095H14.31ZM8.53525 14.1057C5.34595 14.1057 2.76051 11.5203 2.76051 8.33095H0.835596C0.835596 12.5834 4.28285 16.0306 8.53525 16.0306V14.1057ZM2.76051 8.33095C2.76051 5.14165 5.34595 2.55621 8.53525 2.55621V0.631293C4.28285 0.631293 0.835596 4.07855 0.835596 8.33095H2.76051ZM8.53525 2.55621C11.7246 2.55621 14.31 5.14165 14.31 8.33095H16.2349C16.2349 4.07855 12.7877 0.631293 8.53525 0.631293V2.55621Z" fill="#404B52"/>
</svg>
