<svg width="24" height="24" viewBox="0 0 24 24" fill="none" xmlns="http://www.w3.org/2000/svg">
<path fill-rule="evenodd" clip-rule="evenodd" d="M12.1057 3.18846L12.034 3.19568H12.0335C11.934 3.21011 11.8397 3.24186 11.7545 3.28852L11.7454 3.29333C11.7259 3.30404 11.7069 3.31576 11.6886 3.32845L11.6343 3.36741C11.604 3.39146 11.5751 3.41744 11.5482 3.44534L7.81913 7.17534L7.76429 7.23547C7.48875 7.57019 7.51248 8.05945 7.81913 8.36592L7.87926 8.42028C8.21386 8.69595 8.7031 8.67243 9.00971 8.36592L11.3129 6.06173V15.3333L11.3158 15.4026C11.3519 15.8392 11.7167 16.1752 12.1548 16.1752L12.2236 16.1723C12.6603 16.1365 12.9966 15.7716 12.9966 15.3333V6.05981L15.3022 8.36592L15.3624 8.42028C15.7091 8.70524 16.2184 8.66809 16.5201 8.33583C16.8218 8.00358 16.8098 7.49306 16.4928 7.17534L12.7513 3.43379L12.7065 3.39194L12.6488 3.34624C12.567 3.28708 12.4766 3.24426 12.3828 3.21829L12.3496 3.20963L12.264 3.19375L12.1899 3.1875L12.1057 3.18846ZM19.7283 10.6947C19.6925 10.2579 19.3276 9.92166 18.8893 9.92163C18.4242 9.92163 18.0475 10.2988 18.0475 10.7635V17.6183L18.0451 17.6924C18.0062 18.2601 17.5342 18.7007 16.9652 18.7007H7.58484L7.51076 18.6983C6.94303 18.6593 6.50243 18.1874 6.5025 17.6183V10.7635L6.49961 10.6947C6.46228 10.245 6.07707 9.90474 5.62625 9.92319C5.17542 9.94164 4.81931 10.3122 4.81885 10.7635V17.6183L4.82077 17.7241C4.87765 19.2095 6.09836 20.3844 7.58484 20.3843H16.9652L17.071 20.3824C18.5564 20.3255 19.7312 19.1048 19.7312 17.6183V10.7635L19.7283 10.6947Z" fill="black"/>
</svg>
