<svg width="24" height="24" viewBox="0 0 24 24" fill="none" xmlns="http://www.w3.org/2000/svg">
<path fill-rule="evenodd" clip-rule="evenodd" d="M21.6084 5.74341L23.3375 7.47246C24.0619 8.19684 24.0619 9.37548 23.3374 10.0998L21.6981 11.7391C20.972 12.4653 19.7968 12.4652 19.0707 11.7391L17.4105 10.0789L10.1575 17.3319L11.8178 18.9922C12.544 19.7183 12.5439 20.8933 11.8178 21.6195L10.1785 23.2588C9.45409 23.9832 8.27545 23.9832 7.55112 23.2588L6.20396 21.9117L5.36524 22.7504C4.81709 23.2986 3.92978 23.2985 3.38177 22.7504L2.21536 21.584C1.66856 21.0371 1.66856 20.1474 2.21531 19.6005L3.05407 18.7618L1.32503 17.0328C0.600642 16.3084 0.600642 15.1298 1.32503 14.4054L2.96438 12.7661C3.69047 12.0399 4.86564 12.04 5.59174 12.7661L7.28929 14.4637L14.5423 7.21068L12.8447 5.51308C12.1185 4.78698 12.1186 3.61191 12.8447 2.88576L14.484 1.24641C15.2084 0.522029 16.387 0.522029 17.1114 1.24641L18.4586 2.59353L19.2973 1.75486C19.8454 1.20662 20.7327 1.20675 21.2807 1.75486L22.4472 2.92123C22.994 3.46811 22.994 4.35786 22.4472 4.9047L21.6084 5.74341ZM4.3735 21.7004L5.18298 20.8909L4.07495 19.7829L3.26542 20.5924L4.3735 21.7004ZM10.797 20.5985L10.7972 20.5988L10.7973 20.5989C10.7979 20.5997 10.7916 20.606 10.6248 20.7724C10.4313 20.9654 10.022 21.3735 9.15767 22.2379C8.99624 22.3993 8.73355 22.3993 8.57207 22.2379L2.34603 16.0118C2.1846 15.8504 2.1846 15.5877 2.34603 15.4262L3.98543 13.7869C4.14731 13.625 4.409 13.6251 4.57093 13.7869L10.797 20.013C10.9588 20.1749 10.9588 20.4366 10.797 20.5985ZM8.31034 15.4847L9.13673 16.3111L16.3897 9.05812L15.5633 8.23172L8.31034 15.4847ZM19.4796 3.61445L20.2891 2.80498L21.3972 3.91301L20.5877 4.72253L19.4796 3.61445ZM20.0918 10.7184C20.2537 10.8802 20.5154 10.8802 20.6773 10.7184L22.3167 9.07906C22.4781 8.91762 22.4781 8.6549 22.3167 8.49346L16.0907 2.26742C15.9292 2.10598 15.6665 2.10598 15.5051 2.26742C13.8948 3.8777 13.864 3.9045 13.8655 3.90642C13.8656 3.90653 13.8658 3.90656 13.8658 3.90681C13.7039 4.0687 13.7039 4.33039 13.8658 4.49227L20.0918 10.7184Z" fill="#9299A3"/>
</svg>
