<svg width="20" height="24" viewBox="0 0 20 24" fill="none" xmlns="http://www.w3.org/2000/svg">
<path fill-rule="evenodd" clip-rule="evenodd" d="M9.06572 11.4827H11.1936C15.6539 11.487 19.2685 14.8352 19.273 18.9668V20.653C19.2685 22.3905 17.7491 23.7979 15.8734 23.8022H4.386C2.51033 23.7979 0.990912 22.3905 0.986359 20.653V18.9668C0.990912 14.8352 4.6055 11.487 9.06572 11.4827ZM15.8732 22.2622C16.8307 22.258 17.6058 21.54 17.6104 20.653H17.6105V18.9668C17.6105 15.6839 14.7375 13.0226 11.1935 13.0226H9.06557C5.52156 13.0226 2.64857 15.6839 2.64857 18.9668V20.653C2.65313 21.54 3.42824 22.258 4.38578 22.2622H15.8732Z" fill="#9299A3"/>
<path fill-rule="evenodd" clip-rule="evenodd" d="M15.5325 5.7079C15.5325 8.47194 13.1135 10.7127 10.1296 10.7127C7.14751 10.7085 4.73124 8.47023 4.72668 5.7079C4.72668 2.94386 7.14566 0.703125 10.1296 0.703125C13.1135 0.703125 15.5325 2.94386 15.5325 5.7079ZM13.8699 5.70799C13.8699 3.79442 12.1952 2.24315 10.1294 2.24315C8.06551 2.24737 6.39355 3.79614 6.38899 5.70799C6.38899 7.62156 8.06366 9.17283 10.1294 9.17283C12.1952 9.17283 13.8699 7.62156 13.8699 5.70799Z" fill="#9299A3"/>
</svg>
